<?xml version="1.0" encoding="UTF-8" standalone="no"?>
<svg
   xmlns:dc="http://purl.org/dc/elements/1.1/"
   xmlns:cc="http://creativecommons.org/ns#"
   xmlns:rdf="http://www.w3.org/1999/02/22-rdf-syntax-ns#"
   xmlns:svg="http://www.w3.org/2000/svg"
   xmlns="http://www.w3.org/2000/svg"
   xmlns:sodipodi="http://sodipodi.sourceforge.net/DTD/sodipodi-0.dtd"
   xmlns:inkscape="http://www.inkscape.org/namespaces/inkscape"
   width="20"
   height="20"
   viewBox="0 0 20 20"
   version="1.1"
   id="svg87"
   sodipodi:docname="android.svg"
   inkscape:version="0.92.3 (2405546, 2018-03-11)">
  <metadata
     id="metadata93">
    <rdf:RDF>
      <cc:Work
         rdf:about="">
        <dc:format>image/svg+xml</dc:format>
        <dc:type
           rdf:resource="http://purl.org/dc/dcmitype/StillImage" />
        <dc:title></dc:title>
      </cc:Work>
    </rdf:RDF>
  </metadata>
  <defs
     id="defs91" />
  <sodipodi:namedview
     pagecolor="#ffffff"
     bordercolor="#666666"
     borderopacity="1"
     objecttolerance="10"
     gridtolerance="10"
     guidetolerance="10"
     inkscape:pageopacity="0"
     inkscape:pageshadow="2"
     inkscape:window-width="1877"
     inkscape:window-height="1025"
     id="namedview89"
     showgrid="false"
     inkscape:zoom="14.919953"
     inkscape:cx="10"
     inkscape:cy="10.947867"
     inkscape:window-x="43"
     inkscape:window-y="27"
     inkscape:window-maximized="1"
     inkscape:current-layer="svg87" />
  <g
     id="g669"
     transform="matrix(0.03628219,0,0,0.03628219,10.374152,9.3595318)">
    <g
       id="g426"
       transform="translate(-267.27209,-238.62608)">
      <g
         id="g424">
        <path
           id="path422"
           d="m 357.804,74.072 c -27.52,-27.104 -63.68,-42.048 -101.792,-42.048 -79.392,0 -144,64.608 -144,144 v 224 c 0,8.832 7.168,16 16,16 h 32 c 8.832,0 16,-7.168 16,-16 0,-8.832 -7.168,-16 -16,-16 h -16 v -208 c 0,-61.76 50.24,-112 112,-112 29.664,0 57.856,11.648 79.168,32.672 21.184,21.472 32.832,49.632 32.832,79.328 v 208 h -16 c -8.832,0 -16,7.168 -16,16 0,8.832 7.168,16 16,16 h 32 c 8.832,0 16,-7.168 16,-16 v -224 c 0,-38.144 -14.944,-74.304 -42.208,-101.952 z"
           inkscape:connector-curvature="0" />
      </g>
    </g>
    <g
       id="g432"
       transform="translate(-267.27209,-238.62608)">
      <g
         id="g430">
        <path
           id="path428"
           d="m 288.012,384.024 h -64 c -8.832,0 -16,7.168 -16,16 0,8.832 7.168,16 16,16 h 64 c 8.832,0 16,-7.168 16,-16 0,-8.832 -7.168,-16 -16,-16 z"
           inkscape:connector-curvature="0" />
      </g>
    </g>
    <g
       id="g438"
       transform="translate(-267.27209,-238.62608)">
      <g
         id="g436">
        <path
           id="path434"
           d="m 224.012,384.024 c -8.832,0 -16,7.168 -16,16 v 64 c 0,8.8 -7.168,16 -16,16 -8.832,0 -16,-7.2 -16,-16 v -64 c 0,-8.832 -7.168,-16 -16,-16 -8.832,0 -16,7.168 -16,16 v 64 c 0,26.464 21.536,48 48,48 26.464,0 48,-21.536 48,-48 v -64 c 0,-8.832 -7.168,-16 -16,-16 z"
           inkscape:connector-curvature="0" />
      </g>
    </g>
    <g
       id="g444"
       transform="translate(-267.27209,-238.62608)">
      <g
         id="g442">
        <path
           id="path440"
           d="m 352.012,384.024 c -8.832,0 -16,7.168 -16,16 v 64 c 0,8.8 -7.2,16 -16,16 -8.8,0 -16,-7.2 -16,-16 v -64 c 0,-8.832 -7.168,-16 -16,-16 -8.832,0 -16,7.168 -16,16 v 64 c 0,26.464 21.536,48 48,48 26.464,0 48,-21.536 48,-48 v -64 c 0,-8.832 -7.168,-16 -16,-16 z"
           inkscape:connector-curvature="0" />
      </g>
    </g>
    <g
       id="g450"
       transform="translate(-267.27209,-238.62608)">
      <g
         id="g448">
        <path
           id="path446"
           d="m 64.012,160.024 c -8.832,0 -16,7.168 -16,16 v 160 c 0,8.832 7.168,16 16,16 8.832,0 16,-7.168 16,-16 v -160 c 0,-8.832 -7.168,-16 -16,-16 z"
           inkscape:connector-curvature="0" />
      </g>
    </g>
    <g
       id="g456"
       transform="translate(-267.27209,-238.62608)">
      <g
         id="g454">
        <path
           id="path452"
           d="m 448.012,160.024 c -8.832,0 -16,7.168 -16,16 v 160 c 0,8.832 7.168,16 16,16 8.832,0 16,-7.168 16,-16 v -160 c 0,-8.832 -7.168,-16 -16,-16 z"
           inkscape:connector-curvature="0" />
      </g>
    </g>
    <g
       id="g462"
       transform="translate(-267.27209,-238.62608)">
      <g
         id="g460">
        <path
           id="path458"
           d="m 384.012,160.024 h -256 c -8.832,0 -16,7.168 -16,16 0,8.832 7.168,16 16,16 h 256 c 8.832,0 16,-7.168 16,-16 0,-8.832 -7.168,-16 -16,-16 z"
           inkscape:connector-curvature="0" />
      </g>
    </g>
    <g
       id="g468"
       transform="translate(-267.27209,-238.62608)">
      <g
         id="g466">
        <path
           id="path464"
           d="m 183.692,72.632 -42.24,-65.28 c -4.8,-7.456 -14.72,-9.568 -22.112,-4.768 -7.424,4.8 -9.568,14.72 -4.768,22.112 l 42.24,65.28 c 3.04,4.736 8.192,7.328 13.44,7.328 3.008,0 5.984,-0.832 8.672,-2.56 7.424,-4.8 9.568,-14.72 4.768,-22.112 z"
           inkscape:connector-curvature="0" />
      </g>
    </g>
    <g
       id="g474"
       transform="translate(-267.27209,-238.62608)">
      <g
         id="g472">
        <path
           id="path470"
           d="M 392.108,2.2 C 384.588,-2.248 374.7,0.248 370.22,7.896 l -39.68,67.52 c -4.48,7.648 -1.92,17.44 5.696,21.92 2.528,1.504 5.312,2.208 8.096,2.208 5.472,0 10.816,-2.848 13.792,-7.904 l 39.68,-67.52 c 4.48,-7.648 1.92,-17.44 -5.696,-21.92 z"
           inkscape:connector-curvature="0" />
      </g>
    </g>
    <g
       id="g480"
       transform="translate(-267.27209,-238.62608)">
      <g
         id="g478">
        <path
           id="path476"
           d="m 288.652,96.024 h -0.32 c -8.864,0 -15.84,7.168 -15.84,16 0,8.832 7.328,16 16.16,16 8.832,0 16,-7.168 16,-16 0,-8.832 -7.168,-16 -16,-16 z"
           inkscape:connector-curvature="0" />
      </g>
    </g>
    <g
       id="g486"
       transform="translate(-267.27209,-238.62608)">
      <g
         id="g484">
        <path
           id="path482"
           d="m 224.652,96.024 h -0.32 c -8.832,0 -15.84,7.168 -15.84,16 0,8.832 7.328,16 16.16,16 8.832,0 16,-7.168 16,-16 0,-8.832 -7.168,-16 -16,-16 z"
           inkscape:connector-curvature="0" />
      </g>
    </g>
  </g>
</svg>
