<svg id="Layer_1" data-name="Layer 1" xmlns="http://www.w3.org/2000/svg" width="75" height="75" viewBox="0 0 75 75">
  <defs>
    <style>
      .cls-1 {
        fill: #333334;
      }
    </style>
  </defs>
  <g>
    <path class="cls-1" d="M33.59,52.12a6.07,6.07,0,1,0-6.07,6.07A6.07,6.07,0,0,0,33.59,52.12Zm-9,0a2.94,2.94,0,1,1,2.94,2.94A2.94,2.94,0,0,1,24.58,52.12Z"/>
    <path class="cls-1" d="M8.54,50H15.8a1.56,1.56,0,0,0,0-3.13H8.54a1.56,1.56,0,0,0,0,3.13Z"/>
    <path class="cls-1" d="M8.54,56.26H15.8a1.56,1.56,0,0,0,0-3.13H8.54a1.56,1.56,0,0,0,0,3.13Z"/>
    <path class="cls-1" d="M43.15,0H8.54a1.56,1.56,0,1,0,0,3.13h33V46.88H38.46V20.32a4.69,4.69,0,0,0-4.69-4.69H8.54a1.56,1.56,0,0,0,0,3.13H33.77a1.56,1.56,0,0,1,1.56,1.56V37.5H8.54a1.56,1.56,0,1,0,0,3.13H35.34V62.51H8.54a1.56,1.56,0,1,0,0,3.13H22.81v4.68A4.7,4.7,0,0,0,27.5,75h6.29a4.68,4.68,0,0,0,4.68-4.68V50h4.69a1.56,1.56,0,0,0,1.56-1.56V1.56A1.56,1.56,0,0,0,43.15,0ZM35.34,70.32a1.56,1.56,0,0,1-1.55,1.55H27.5a1.57,1.57,0,0,1-1.56-1.56V65.64h9.4Z"/>
    <path class="cls-1" d="M65.39,19.53A10.56,10.56,0,0,0,60,11.91a1.56,1.56,0,1,0-1.53,2.73,7.44,7.44,0,0,1,3.67,4.89h-.25a2.67,2.67,0,0,0-2.67,2.67v7.17A2.66,2.66,0,0,0,61.93,32h3.43A2.66,2.66,0,0,0,68,29.36V22.19A2.66,2.66,0,0,0,65.39,19.53ZM64,22.65h.95V28.9H62.39V22.65Z"/>
    <path class="cls-1" d="M64,35.16a1.56,1.56,0,0,0-1.56,1.56V53.91a6.25,6.25,0,0,1-6.25,6.25H51.45a1.56,1.56,0,0,0,0,3.13h4.69a9.38,9.38,0,0,0,9.38-9.38V36.72A1.56,1.56,0,0,0,64,35.16Z"/>
  </g>
</svg>
