<svg id="Layer_1" data-name="Layer 1" xmlns="http://www.w3.org/2000/svg" width="75" height="75" viewBox="0 0 75 75">
  <defs>
    <style>
      .cls-1 {
        fill: #333;
      }
    </style>
  </defs>
  <title>Circle_K_Vector_Icons_convenience_products_(car_wash)_080317</title>
  <g>
    <path class="cls-1" d="M22.92,62.53a4.72,4.72,0,1,0-4.72-4.72A4.72,4.72,0,0,0,22.92,62.53Zm0-6.18a1.46,1.46,0,1,1-1.46,1.46A1.46,1.46,0,0,1,22.92,56.36Z"/>
    <path class="cls-1" d="M52.07,62.53a4.72,4.72,0,1,0-4.72-4.72A4.72,4.72,0,0,0,52.07,62.53Zm0-6.18a1.46,1.46,0,1,1-1.46,1.46A1.46,1.46,0,0,1,52.07,56.36Z"/>
    <path class="cls-1" d="M34.3,33.92h6.38a1.63,1.63,0,0,0,0-3.26H34.3a1.63,1.63,0,0,0,0,3.26Z"/>
    <path class="cls-1" d="M33.09,55.79H41.9a1.63,1.63,0,1,0,0-3.26H33.09a1.63,1.63,0,1,0,0,3.26Z"/>
    <path class="cls-1" d="M33.09,60.69H41.9a1.63,1.63,0,1,0,0-3.26H33.09a1.63,1.63,0,1,0,0,3.26Z"/>
    <path class="cls-1" d="M66.78,41.62a3,3,0,0,0-2.55-1.31H58.94l-2.47-9.65,0-.14A7.31,7.31,0,0,0,54.73,28a8.54,8.54,0,0,0-6.22-2.41h-22A8.54,8.54,0,0,0,20.27,28a7.31,7.31,0,0,0-1.7,2.54l0,.14-2.47,9.65H10.77a3,3,0,0,0-2.55,1.31,4,4,0,0,0-.62,2.24,5.56,5.56,0,0,0,.28,1.73,3.41,3.41,0,0,0,1,1.55,5.24,5.24,0,0,0,2.1,1L9.68,58.23V70.63A4.37,4.37,0,0,0,14,75h3.72a4.37,4.37,0,0,0,4.37-4.37V67.92H52.87v2.71A4.37,4.37,0,0,0,57.24,75H61a4.37,4.37,0,0,0,4.37-4.37V58.23L64.06,48.11a5.23,5.23,0,0,0,2.1-1,3.41,3.41,0,0,0,1-1.54,5.56,5.56,0,0,0,.28-1.73A4,4,0,0,0,66.78,41.62ZM26.49,28.84h22a5.25,5.25,0,0,1,3.92,1.46,4.68,4.68,0,0,1,.75,1l.15.3h0l2.54,9.91A6.46,6.46,0,0,1,55,43.13a4.08,4.08,0,0,1-3.37,1.69H23.47A4.11,4.11,0,0,1,20,43a6.66,6.66,0,0,1-.77-1.34l-.12-.3,2.52-9.81a4.37,4.37,0,0,1,1.05-1.43A5.31,5.31,0,0,1,26.49,28.84ZM16.56,43.57A9.53,9.53,0,0,0,17.43,45a7.4,7.4,0,0,0,6,3.08H51.59a7.4,7.4,0,0,0,6-3.08,9.53,9.53,0,0,0,.87-1.43H64.1l0,.29-.11.7-.05.12a4.24,4.24,0,0,1-1.06.35l-.61.11-.18,0h0A1.63,1.63,0,0,0,60.64,47l1.43,11.52v6.13H12.93V58.53L14.36,47a1.63,1.63,0,0,0-1.44-1.82h-.06A9.33,9.33,0,0,1,11.8,45l-.6-.2L11,44.7a2.09,2.09,0,0,1-.17-.84l0-.29Zm2.31,27.06a1.11,1.11,0,0,1-1.11,1.11H14a1.11,1.11,0,0,1-1.11-1.11V67.92h5.93ZM61,71.74H57.24a1.11,1.11,0,0,1-1.11-1.11V67.92h5.93v2.71A1.11,1.11,0,0,1,61,71.74Z"/>
    <path class="cls-1" d="M14.2,7.67l4.41-4.41H56.39L60.8,7.67A1.63,1.63,0,1,0,63.1,5.37L58.21.48A1.63,1.63,0,0,0,57.06,0H17.94a1.63,1.63,0,0,0-1.15.48L11.9,5.37A1.63,1.63,0,1,0,14.2,7.67Z"/>
    <path class="cls-1" d="M39.45,11.44l-.59-.93a1.63,1.63,0,0,0-2.72,0l-.59.93c-.44.7-.87,1.44-1.28,2.17-.22.4-.43.78-.62,1.16a10,10,0,0,0-1.39,4.13,5.24,5.24,0,0,0,10.48,0,10,10,0,0,0-1.39-4.13q-.29-.56-.62-1.16C40.32,12.87,39.88,12.14,39.45,11.44ZM37.5,20.87a2,2,0,0,1-2-2,9.12,9.12,0,0,1,1-2.64c.17-.34.36-.69.56-1.06s.26-.43.38-.65c.13.22.26.43.38.65s.39.72.57,1.06a9.11,9.11,0,0,1,1,2.64A2,2,0,0,1,37.5,20.87Z"/>
    <path class="cls-1" d="M23,11a1.63,1.63,0,0,0-2.57-.89l-1,.77c-.72.58-1.43,1.19-2.11,1.8-.37.34-.72.66-1,1A9,9,0,0,0,14,16.75a5.24,5.24,0,1,0,9.9,3.45,10.55,10.55,0,0,0,0-4.64c-.09-.62-.21-1.27-.34-1.94C23.31,12.52,23.1,11.59,23,11Zm-2.17,8.12A2,2,0,1,1,17,17.82,7.8,7.8,0,0,1,18.56,16c.29-.28.6-.58.94-.88s.57-.48.85-.73c.11.57.21,1.14.29,1.66A9.9,9.9,0,0,1,20.78,19.13Z"/>
    <path class="cls-1" d="M57.69,12.69c-.67-.61-1.39-1.22-2.11-1.8l-1-.77A1.63,1.63,0,0,0,52,11c-.15.58-.36,1.51-.57,2.6-.13.67-.24,1.32-.34,1.94a10.55,10.55,0,0,0,0,4.64A5.24,5.24,0,1,0,61,16.75a9,9,0,0,0-2.31-3.08C58.41,13.35,58.06,13,57.69,12.69Zm-1,7.66a2,2,0,0,1-2.52-1.22A9.89,9.89,0,0,1,54.36,16c.08-.53.18-1.09.29-1.66.28.24.58.48.85.73s.65.6.94.88A7.79,7.79,0,0,1,58,17.82,2,2,0,0,1,56.74,20.35Z"/>
  </g>
</svg>
