<svg id="Layer_1" data-name="Layer 1" xmlns="http://www.w3.org/2000/svg" width="75" height="75" viewBox="0 0 75 75">
  <defs>
    <style>
      .cls-1 {
        fill: #333334;
      }
    </style>
  </defs>
  <g>
    <path class="cls-1" d="M62.72,8.44H56.8L54.64,1.12A1.56,1.56,0,0,0,53.14,0H21.85a1.56,1.56,0,0,0-1.5,1.12L18.2,8.44H12.28A1.56,1.56,0,0,0,10.73,9.8L9,23.34a1.56,1.56,0,0,0,1.55,1.76h1.43l4.68,44.5v-.09C16.78,72.91,18.41,75,21,75H54c2.56,0,4.2-2.09,4.36-5.48l4.67-44.41h1.43A1.56,1.56,0,0,0,66,23.34L64.27,9.8A1.56,1.56,0,0,0,62.72,8.44Zm-41.86,2L23,3.12H52l2.16,7.32a1.56,1.56,0,0,0,1.5,1.12h5.72L62.71,22h-.54a1.52,1.52,0,0,0-.5-.11H13.34a1.52,1.52,0,0,0-.5.11h-.54l1.36-10.42h5.72A1.56,1.56,0,0,0,20.86,10.45ZM57,53H18l-1.31-12.5H58.29ZM55.27,69.28c-.1,2-.58,2.6-1.25,2.6H21c-.66,0-1.15-.62-1.24-2.51v-.09L18.35,56.16h38.3Zm3.35-31.87H16.38l-1.29-12.3H59.91Z"/>
    <path class="cls-1" d="M42.19,18.66h12.5a1.56,1.56,0,0,0,0-3.12H42.19a1.56,1.56,0,0,0,0,3.12Z"/>
  </g>
</svg>
