<?xml version="1.0" encoding="UTF-8" standalone="no"?>
<svg
   xmlns:dc="http://purl.org/dc/elements/1.1/"
   xmlns:cc="http://creativecommons.org/ns#"
   xmlns:rdf="http://www.w3.org/1999/02/22-rdf-syntax-ns#"
   xmlns:svg="http://www.w3.org/2000/svg"
   xmlns="http://www.w3.org/2000/svg"
   xmlns:sodipodi="http://sodipodi.sourceforge.net/DTD/sodipodi-0.dtd"
   xmlns:inkscape="http://www.inkscape.org/namespaces/inkscape"
   id="Layer_1"
   data-name="Layer 1"
   viewBox="0 0 49.999997 55.970078"
   version="1.1"
   sodipodi:docname="Toilets Both.svg"
   width="50"
   height="55.970078"
   inkscape:version="0.92.3 (2405546, 2018-03-11)">
  <metadata
     id="metadata3876">
    <rdf:RDF>
      <cc:Work
         rdf:about="">
        <dc:format>image/svg+xml</dc:format>
        <dc:type
           rdf:resource="http://purl.org/dc/dcmitype/StillImage" />
        <dc:title>Toilets Both</dc:title>
      </cc:Work>
    </rdf:RDF>
  </metadata>
  <sodipodi:namedview
     pagecolor="#ffffff"
     bordercolor="#666666"
     borderopacity="1"
     objecttolerance="10"
     gridtolerance="10"
     guidetolerance="10"
     inkscape:pageopacity="0"
     inkscape:pageshadow="2"
     inkscape:window-width="1920"
     inkscape:window-height="1025"
     id="namedview3874"
     showgrid="false"
     fit-margin-top="0"
     fit-margin-left="0"
     fit-margin-right="0"
     fit-margin-bottom="0"
     inkscape:zoom="11.146667"
     inkscape:cx="33.650703"
     inkscape:cy="37.667576"
     inkscape:window-x="0"
     inkscape:window-y="0"
     inkscape:window-maximized="1"
     inkscape:current-layer="Layer_1" />
  <defs
     id="defs3855">
    <style
       id="style3853">.cls-1{fill:#333;}</style>
  </defs>
  <title
     id="title3857">Toilets Both</title>
  <path
     class="cls-1"
     d="M 8.9642481,35.34191 A 1.2135277,1.2135277 0 0 0 7.7581653,36.555439 V 54.63179 a 1.2135277,1.2135277 0 1 0 2.4196107,0 V 36.555439 A 1.2135277,1.2135277 0 0 0 8.9642481,35.34191 Z"
     id="path3859"
     inkscape:connector-curvature="0"
     style="fill:#333333;stroke-width:0.74449557" />
  <path
     class="cls-1"
     d="m 8.9642481,10.691664 c 2.5610649,0 4.6903219,-3.0896555 4.6903219,-5.8145105 a 4.6903219,4.6903219 0 1 0 -9.3731987,0 c 0,2.724855 2.1292571,5.8145105 4.6828768,5.8145105 z m 0,-8.0852205 a 2.2334866,2.2334866 0 0 1 2.2334869,2.27071 c 0,1.541107 -1.2805327,3.3949 -2.2334869,3.3949 -0.9529542,0 -2.2334866,-1.853793 -2.2334866,-3.3949 a 2.2334866,2.2334866 0 0 1 2.2334866,-2.27071 z"
     id="path3861"
     inkscape:connector-curvature="0"
     style="fill:#333333;stroke-width:0.74449557" />
  <path
     class="cls-1"
     d="M 15.843386,11.413826 A 6.975923,6.975923 0 0 0 14.39162,11.29471 l -1.049738,-0.04467 a 2.7844133,2.7844133 0 0 0 -2.642959,1.570885 c -0.595597,1.161413 -2.8663081,1.161413 -3.4619046,0 a 2.7844133,2.7844133 0 0 0 -2.657849,-1.57088 l -1.0497388,0.04467 a 6.975923,6.975923 0 0 0 -1.4889909,0.119116 l -0.4541423,0.238238 c -1.31775714,1.101854 -1.92079853,6.149533 -1.39965164,19.974816 a 1.3549819,1.3549819 0 0 0 1.34753694,1.340091 1.9133535,1.9133535 0 0 0 0.3573578,0 L 3.2018528,54.698795 A 1.2135277,1.2135277 0 0 0 5.6214633,54.557338 L 4.2441465,31.827892 a 1.3624268,1.3624268 0 0 0 -1.2805324,-1.295421 2.6355141,2.6355141 0 0 0 -0.3424679,0 C 2.3829076,23.459763 2.479692,18.620542 2.8221599,15.74679 A 17.4882,17.4882 0 0 1 3.1422931,13.773875 H 3.64855 l 1.0944083,-0.05212 0.3424681,0.268018 c 1.4889911,2.903533 6.2686526,2.903533 7.7650886,0 l 0.335023,-0.268018 1.101854,0.05212 h 0.506256 c 0.05956,0.282908 0.186124,0.863616 0.320133,1.972915 0.342468,2.903531 0.439254,7.712973 0.201014,14.785681 a 2.6355141,2.6355141 0 0 0 -0.342468,0 1.3773168,1.3773168 0 0 0 -1.340092,1.347536 l -1.369872,22.707114 a 1.2081551,1.2081551 0 1 0 2.412166,0.141456 L 15.992286,32.99675 a 1.9133535,1.9133535 0 0 0 0.357358,0 1.3549819,1.3549819 0 0 0 1.347537,-1.332647 C 18.210883,17.838822 17.615289,12.798587 16.304974,11.689288 Z"
     id="path3863"
     inkscape:connector-curvature="0"
     style="fill:#333333;stroke-width:0.74449557" />
  <path
     class="cls-1"
     d="m 35.27472,12.217879 a 1.2284176,1.2284176 0 0 1 0.230794,-0.134007 c 0,0 0.05212,-0.05212 0.08933,-0.05956 -0.08189,0.02232 -0.08189,0.02232 -0.320132,0.193567 z"
     id="path3865"
     inkscape:connector-curvature="0"
     style="fill:#333333;stroke-width:0.74449557" />
  <path
     class="cls-1"
     d="m 45.526423,12.024312 c 0.03723,0 0.05956,0 0.08933,0.05212 a 1.9282434,1.9282434 0 0 1 0.230794,0.141456 c -0.20846,-0.171233 -0.20846,-0.171233 -0.320134,-0.193568 z"
     id="path3867"
     inkscape:connector-curvature="0"
     style="fill:#333333;stroke-width:0.74449557" />
  <path
     class="cls-1"
     d="M 48.184272,27.554489 46.85907,22.04522 c 0.16379,-5.211468 0.04467,-7.824647 -0.327578,-8.933946 a 1.690005,1.690005 0 0 0 -0.885949,-1.034849 1.1911928,1.1911928 0 0 0 -0.573261,-0.163789 h -1.191194 a 1.2060828,1.2060828 0 0 0 -0.863614,0.364804 l -1.570886,1.615555 a 1.2209727,1.2209727 0 0 1 -1.734674,0 L 38.141027,12.27744 a 1.2284176,1.2284176 0 0 0 -0.863614,-0.364804 h -1.198638 a 1.1986378,1.1986378 0 0 0 -0.573261,0.171235 1.6527802,1.6527802 0 0 0 -0.885951,1.027403 c -0.364802,1.07952 -0.491366,3.722478 -0.327578,8.933946 l -1.317757,5.472043 -1.66767,7.846983 a 3.5810235,3.5810235 0 0 0 3.42468,4.779662 h 2.181373 v 14.517663 a 1.2135277,1.2135277 0 1 0 2.41961,0 V 38.908045 a 1.2060828,1.2060828 0 0 0 -1.206084,-1.213528 h -3.394899 a 1.1986378,1.1986378 0 0 1 -1.116744,-1.652781 l 1.719785,-8.018217 1.347536,-5.598607 v -0.327575 a 52.859184,52.859184 0 0 1 0.08935,-7.712976 l 1.168858,1.198638 a 3.6331382,3.6331382 0 0 0 5.211469,0 l 1.168857,-1.198638 a 52.4646,52.4646 0 0 1 0.09679,7.712976 v 0.327575 l 1.354981,5.628388 1.660224,7.787423 a 1.2656424,1.2656424 0 0 1 -1.064628,1.853794 h -3.394899 a 1.2135277,1.2135277 0 0 0 -1.206083,1.213528 V 54.63179 a 1.2135277,1.2135277 0 1 0 2.419609,0 V 40.114127 h 2.181373 a 3.6256933,3.6256933 0 0 0 3.372565,-4.97323 z"
     id="path3869"
     inkscape:connector-curvature="0"
     style="fill:#333333;stroke-width:0.74449557" />
  <path
     class="cls-1"
     d="m 33.614494,9.5823655 a 4.0500557,4.0500557 0 0 0 4.675434,-0.04467 3.5363538,3.5363538 0 0 0 2.322826,0.9752915 3.5959134,3.5959134 0 0 0 2.330269,-0.9678465 4.0351659,4.0351659 0 0 0 4.660543,0 5.1295742,5.1295742 0 0 0 0.900839,-0.826388 1.2084821,1.2084821 0 0 0 -1.824014,-1.585777 l -0.498811,0.454142 a 1.6453351,1.6453351 0 0 1 -1.81657,0 6.7004598,6.7004598 0 0 0 0.744495,-2.888642 4.5116431,4.5116431 0 1 0 -9.023286,0 6.7674643,6.7674643 0 0 0 0.707272,2.888642 1.6453351,1.6453351 0 0 1 -1.816568,0 L 34.47811,7.1329725 a 1.2084817,1.2084817 0 0 0 -1.824013,1.585777 5.0997945,5.0997945 0 0 0 0.960397,0.863614 z m 6.99826,-7.154603 a 2.1888168,2.1888168 0 0 1 2.092033,2.233487 c 0,1.548551 -1.206085,3.3949 -2.092033,3.3949 -0.88595,0 -2.092034,-1.846349 -2.092034,-3.3949 a 2.1888168,2.1888168 0 0 1 2.054808,-2.233487 z"
     id="path3871"
     inkscape:connector-curvature="0"
     style="fill:#333333;stroke-width:0.74449557" />
</svg>
