<svg id="Layer_1" data-name="Layer 1" xmlns="http://www.w3.org/2000/svg" width="75" height="75" viewBox="0 0 75 75">
  <defs>
    <style>
      .cls-1 {
        fill: #333;
      }
    </style>
  </defs>
  <g>
    <path class="cls-1" d="M51.67,48.51a1.58,1.58,0,0,0-2,.89h0l-.79,2,0,.11-.66,2.15a1.58,1.58,0,1,0,3,.93l.64-2.1.77-2A1.58,1.58,0,0,0,51.67,48.51Z"/>
    <path class="cls-1" d="M42.11,48.51a1.58,1.58,0,0,0-2,.89h0l-.79,2,0,.11-.66,2.15a1.58,1.58,0,1,0,3,.93l.64-2.1.77-2A1.58,1.58,0,0,0,42.11,48.51Z"/>
    <path class="cls-1" d="M56.45,48.51a1.58,1.58,0,0,0-2,.89h0l-.79,2,0,.11-.66,2.15a1.58,1.58,0,1,0,3,.93l.64-2.1.77-2A1.58,1.58,0,0,0,56.45,48.51Z"/>
    <path class="cls-1" d="M46.89,48.51a1.58,1.58,0,0,0-2,.89h0l-.79,2,0,.11-.66,2.15a1.58,1.58,0,1,0,3,.93l.64-2.1.77-2A1.58,1.58,0,0,0,46.89,48.51Z"/>
    <path class="cls-1" d="M26,62.65H1.58a1.58,1.58,0,0,0,0,3.15H26a1.58,1.58,0,0,0,0-3.15Z"/>
    <path class="cls-1" d="M59.49,34.7a45.69,45.69,0,0,0-19.62,4.13h0l-.13.07V23a13.76,13.76,0,0,0-27.53,0V56.57H8.44a1.58,1.58,0,0,0,0,3.15H19.09a1.58,1.58,0,0,0,0-3.15H15.34V23a10.61,10.61,0,0,1,21.22,0V40.76l-.37.23-.06,0C31.25,44.39,28,49,28,54.28A11.54,11.54,0,0,0,39.58,65.81H67.34A7.67,7.67,0,0,0,75,58.15V50.21A15.58,15.58,0,0,0,59.49,34.7Zm7.85,28a4.51,4.51,0,1,1,4.51-4.51A4.52,4.52,0,0,1,67.34,62.65ZM71.85,52A7.63,7.63,0,0,0,61.18,62.65H39.58a8.39,8.39,0,0,1-8.38-8.38c0-3.94,2.37-7.62,6.71-10.64l1.4-.86c.75-.46,1.67-1,1.9-1.09h0a42.57,42.57,0,0,1,18.27-3.82A12.43,12.43,0,0,1,71.85,50.21Z"/>
  </g>
</svg>
