<svg id="Layer_1" data-name="Layer 1" xmlns="http://www.w3.org/2000/svg" width="75" height="75" viewBox="0 0 75 75">
  <defs>
    <style>
      .cls-1 {
        fill: #333;
      }
    </style>
  </defs>
  <path class="cls-1" d="M68.75,26.77h0a6.14,6.14,0,0,0-3.08.85V24.55a7.39,7.39,0,0,0-7.41-7.38H16.79a7.39,7.39,0,0,0-7.41,7.38v3.08a6.18,6.18,0,0,0-3.1-.86h0A6.24,6.24,0,0,0,0,33V45.06a6.56,6.56,0,0,0,6.56,6.48H9.38v4.72a1.56,1.56,0,0,0,3.13,0V51.55h50v4.72a1.56,1.56,0,0,0,3.13,0V51.55h2.81A6.56,6.56,0,0,0,75,45.06V33A6.24,6.24,0,0,0,68.75,26.77ZM62.5,24.55V39H39.06V20.3H58.21A4.26,4.26,0,0,1,62.5,24.55Zm-50,0a4.26,4.26,0,0,1,4.29-4.26H35.94V39H12.5V24.55ZM71.88,45.06a3.44,3.44,0,0,1-3.44,3.36H6.56a3.44,3.44,0,0,1-3.44-3.36V33A3.12,3.12,0,0,1,6.25,29.9h0A3.1,3.1,0,0,1,9.38,33v7.63a1.56,1.56,0,0,0,1.56,1.56H64.06a1.56,1.56,0,0,0,1.56-1.56V33A3.08,3.08,0,0,1,68.7,29.9h0A3.12,3.12,0,0,1,71.88,33Z"/>
</svg>
