<svg id="Layer_1" data-name="Layer 1" xmlns="http://www.w3.org/2000/svg" width="75" height="75" viewBox="0 0 75 75">
  <defs>
    <style>
      .cls-1 {
        fill: #333;
      }
    </style>
  </defs>
  <title>Circle_K_Vector_Icons_convenience_products_(car_wash)_080317</title>
  <g>
    <path class="cls-1" d="M20.48,58.25a6.1,6.1,0,1,0-6.1-6.1A6.1,6.1,0,0,0,20.48,58.25Zm0-9.05a3,3,0,1,1-3,3A3,3,0,0,1,20.48,49.2Z"/>
    <path class="cls-1" d="M55,58.25a6.1,6.1,0,1,0-6.1-6.1A6.1,6.1,0,0,0,55,58.25Zm0-9.05a3,3,0,1,1-3,3A3,3,0,0,1,55,49.2Z"/>
    <path class="cls-1" d="M70.23,0H4.77A1.57,1.57,0,0,0,3.2,1.57V48.46A1.57,1.57,0,0,0,4.77,50H9.89V70.42A4.58,4.58,0,0,0,14.47,75h6A4.58,4.58,0,0,0,25,70.42V65.74h25.5v4.68A4.58,4.58,0,0,0,55.09,75h5.73a4.58,4.58,0,0,0,4.58-4.58V64.17h0V50h4.83a1.57,1.57,0,0,0,1.57-1.57V1.57A1.57,1.57,0,0,0,70.23,0ZM21.86,70.42a1.44,1.44,0,0,1-1.44,1.44h-6A1.44,1.44,0,0,1,13,70.42V65.74h8.84Zm40.39,0a1.44,1.44,0,0,1-1.44,1.44H55.09a1.44,1.44,0,0,1-1.44-1.44V65.74h8.61Zm0-7.82H13v-22H62.26Zm0-25.13H13V21.16a2.83,2.83,0,0,1,2.82-2.82H59.44a2.83,2.83,0,0,1,2.82,2.82Zm6.4,9.42H65.4V39h0V21.16a6,6,0,0,0-6-6H15.85a6,6,0,0,0-6,6V46.89H6.34V3.14H68.66Z"/>
    <path class="cls-1" d="M32,50H43.34a1.57,1.57,0,1,0,0-3.14H32A1.57,1.57,0,1,0,32,50Z"/>
    <path class="cls-1" d="M32,56.31H43.34a1.57,1.57,0,1,0,0-3.14H32a1.57,1.57,0,1,0,0,3.14Z"/>
  </g>
</svg>
