<?xml version="1.0" encoding="UTF-8"?>
<svg width="41px" height="37px" viewBox="0 0 41 37" version="1.1" xmlns="http://www.w3.org/2000/svg" xmlns:xlink="http://www.w3.org/1999/xlink">
    <!-- Generator: Sketch 49.3 (51167) - http://www.bohemiancoding.com/sketch -->
    <title>Artboard</title>
    <desc>Created with Sketch.</desc>
    <defs>
        <rect id="path-1" x="0" y="0" width="15.2" height="10" rx="1.20000002"></rect>
    </defs>
    <g id="Artboard" stroke="none" stroke-width="1" fill="none" fill-rule="evenodd">
        <g id="Group" transform="translate(6.000000, 4.000000)">
            <g id="Group-5-Copy-11" fill="#272A29">
                <path d="M14.3776,28.75 L3.124,28.75 C2.0952,28.75 1.2508,27.9052 1.2508,26.8752 L1.2508,23.75 L16.2508,23.75 L16.2508,26.8752 C16.2508,27.9052 15.4064,28.75 14.3776,28.75 Z M3.124,1.25 L14.3776,1.25 C15.4064,1.25 16.2508,2.0948 16.2508,3.1252 L16.2508,3.75 L1.2508,3.75 L1.2508,3.1252 C1.2508,2.0948 2.0952,1.25 3.124,1.25 Z M1.2508,22.5 L16.25,22.5 L16.25,5 L1.2508,5 L1.2508,22.5 Z M14.3776,0 L3.124,0 C1.4048,0 0.0008,1.4048 0.0008,3.1252 L0.0008,4.372 C0.0008,4.3732 0,4.374 0,4.3752 L0,23.1252 C0,23.1264 0.0008,23.1272 0.0008,23.128 L0.0008,26.8752 C0.0008,28.5948 1.4048,30 3.124,30 L14.3776,30 C16.0968,30 17.5008,28.5948 17.5008,26.8752 L17.5008,3.1252 C17.5008,1.4048 16.0968,0 14.3776,0 Z" id="Fill-222"></path>
                <path d="M8.75,26.6876 C8.508,26.6876 8.3128,26.4924 8.3128,26.25 C8.3128,26.0084 8.5084,25.8124 8.75,25.8124 C8.992,25.8124 9.1876,26.0084 9.1876,26.25 C9.1876,26.4924 8.9924,26.6876 8.75,26.6876 Z M8.75,24.5624 C7.8176,24.5624 7.0628,25.3184 7.0628,26.25 C7.0628,27.1828 7.8172,27.9376 8.75,27.9376 C9.6828,27.9376 10.4376,27.1828 10.4376,26.25 C10.4376,25.3184 9.6824,24.5624 8.75,24.5624 Z" id="Fill-223"></path>
            </g>
            <g id="Group-6-Copy-5" transform="translate(5.800000, 9.200000)">
                <g id="Rectangle-2">
                    <use fill="#FFFFFF" fill-rule="evenodd" xlink:href="#path-1"></use>
                    <rect stroke="#272A29" stroke-width="1.20000002" x="0.600000009" y="0.600000009" width="14" height="8.79999998" rx="1.20000002"></rect>
                </g>
                <rect id="Rectangle-3" stroke="#272A29" stroke-width="1.20000002" x="2.42133333" y="6.2" width="1.2" height="1.2" rx="0.200000003"></rect>
                <path d="M0.704,2.9 L14.0959998,2.9" id="Line" stroke="#272A29" stroke-width="1.20000002" stroke-linecap="square"></path>
            </g>
        </g>
    </g>
</svg>