<svg id="Layer_1" data-name="Layer 1" xmlns="http://www.w3.org/2000/svg" width="75" height="75" viewBox="0 0 75 75">
  <defs>
    <style>
      .cls-1 {
        fill: #333;
      }
    </style>
  </defs>
  <g>
    <path class="cls-1" d="M12.13,38.72a1.63,1.63,0,0,0,2.42,2.19,30.58,30.58,0,0,1,45.89,0,1.63,1.63,0,1,0,2.42-2.19A33.84,33.84,0,0,0,12.13,38.72Z"/>
    <path class="cls-1" d="M.43,26.56a1.63,1.63,0,0,0,2.4,2.21,46.7,46.7,0,0,1,69.34,0,1.63,1.63,0,1,0,2.4-2.21A50,50,0,0,0,.43,26.56Z"/>
    <path class="cls-1" d="M23.81,50.91A1.63,1.63,0,1,0,26.3,53a14.5,14.5,0,0,1,22.4,0,1.63,1.63,0,1,0,2.49-2.11A17.76,17.76,0,0,0,23.81,50.91Z"/>
    <circle class="cls-1" cx="37.5" cy="63.27" r="1.63"/>
  </g>
</svg>
