<svg id="Layer_1" data-name="Layer 1" xmlns="http://www.w3.org/2000/svg" width="75" height="75" viewBox="0 0 75 75">
  <defs>
    <style>
      .cls-1 {
        fill: #333334;
      }
    </style>
  </defs>
  <g>
    <path class="cls-1" d="M38.12,26.64l2.49-7.19L40.26,19,40,19.1,31.32,29.64a.36.36,0,0,0,.28.59h5.27l-2.49,7.19.35.48.27-.14,8.66-10.54a.36.36,0,0,0-.28-.59Z"/>
    <path class="cls-1" d="M54.6,11.39H48V1.57a1.57,1.57,0,0,0-3.14,0v9.82H30.14V1.57a1.57,1.57,0,0,0-3.14,0v9.82H20.4A1.57,1.57,0,0,0,18.83,13V34.45a11,11,0,0,0,11,11h6.06V47.7a4.49,4.49,0,0,1-1.62,3.87c-1.51,1.28-4.35,1.9-7.06,3a9.66,9.66,0,0,0-3.75,2.64,7.8,7.8,0,0,0-1.65,5.1V73.43a1.57,1.57,0,1,0,3.14,0V62.34a4.33,4.33,0,0,1,1.61-3.77c1.51-1.26,4.37-1.87,7.08-3a9.63,9.63,0,0,0,3.75-2.68,8,8,0,0,0,1.65-5.16V45.49h6.06a11,11,0,0,0,11-11V13a1.57,1.57,0,0,0-1.57-1.57ZM53,34.45a7.91,7.91,0,0,1-7.9,7.9H29.87a7.91,7.91,0,0,1-7.9-7.9V14.53H53Z"/>
  </g>
</svg>
