<svg id="Layer_1" data-name="Layer 1" xmlns="http://www.w3.org/2000/svg" width="75" height="75" viewBox="0 0 75 75">
  <defs>
    <style>
      .cls-1 {
        fill: #333334;
      }
    </style>
  </defs>
  <g>
    <path class="cls-1" d="M26.06,43.14a1.6,1.6,0,0,0,2.27,0l8.51-8.51a1.6,1.6,0,0,0-2.27-2.27l-8.51,8.51A1.6,1.6,0,0,0,26.06,43.14Z"/>
    <path class="cls-1" d="M56.71,15.24H37.62L29.71.83A1.61,1.61,0,0,0,28.3,0H15.8a1.6,1.6,0,0,0,0,3.21H27.35l6.61,12H18.29a4.83,4.83,0,0,0-4.83,4.83v4.35a1.6,1.6,0,0,0,1.6,1.6H18l3.75,45.87h0A3.34,3.34,0,0,0,25.1,75H49.52a3.34,3.34,0,0,0,3.32-3h0L57,26h3a1.6,1.6,0,0,0,1.6-1.6V20.07A4.83,4.83,0,0,0,56.71,15.24ZM49.64,71.63h0l-.13.12H25.1L25,71.63h0l-.73-8.88L53,34ZM53.48,29,23.9,58.56,21.24,26H53.75ZM16.67,22.81V20.07a1.62,1.62,0,0,1,1.62-1.62H56.71a1.62,1.62,0,0,1,1.62,1.62v2.74Z"/>
  </g>
</svg>
